<svg width="720" height="940" viewBox="0 0 720 940" fill="none" xmlns="http://www.w3.org/2000/svg">
<g clip-path="url(#clip0_143_70)">
<rect width="720" height="940" fill="white"/>
<path fill-rule="evenodd" clip-rule="evenodd" d="M223.214 512.367C226.033 510.449 231.798 503.582 234.818 501.996C241.535 498.467 271.456 491.531 272.428 491.121C273.91 490.497 283.536 488.316 289.144 486.938C302.313 483.702 349.506 462.802 361.945 457.443C363.533 461.615 376.642 480.031 374.393 481.919C366.989 488.132 353.717 495.869 345.141 500.322C338.204 503.924 330.857 506.904 323.439 509.337C315.018 512.101 309.238 515.063 300.845 517.89C292.587 520.671 302.456 529.368 306.696 531.165C311.453 533.181 318.82 534.204 323.68 535.951C315.123 549.23 307.937 565.345 306.499 581.25C306.153 585.078 303.231 588.587 298.477 587.441C296.024 586.85 273.39 583.84 269.7 583C245.062 577.39 200.832 548.013 212.222 517.89C214.831 519.093 220.788 514.018 223.214 512.367Z" fill="#FF5678"/>
<path fill-rule="evenodd" clip-rule="evenodd" d="M236.998 352.544C238.838 352.389 243.597 348.719 241.1 346.862C238.581 344.989 236.771 351.266 236.998 352.544ZM141.118 366.623C141.6 366.538 141.389 363.909 140.632 363.574C138.241 362.514 138.039 366.497 137.981 367.563C137.908 368.908 137.739 372.697 140.647 371.658C142.297 371.069 141.273 367.631 141.118 366.623ZM282.266 378.903C282.201 381.25 286.949 385.762 288.719 383.055C290.208 380.781 282.388 374.232 282.266 378.903ZM114.402 325.984C115.777 329.488 122.581 324.714 122.834 322.144C123.352 316.881 114.331 322.483 114.402 325.984ZM171.161 341.09C174.329 340.83 178.498 336.808 181.554 335.306C183.621 334.29 189.247 333.078 189.859 330.769C190.391 328.764 180.846 333.057 180.031 333.438C176.286 335.19 172.91 337.186 171.161 341.09ZM409.008 313.358C411.533 311.408 414.603 310.151 417.84 310.233C419.456 310.274 422.829 311.284 422.955 308.493C423.162 303.955 408.885 309.49 406.654 310.38C407.439 311.373 408.223 312.366 409.008 313.358ZM251.47 490.231C249.618 487.159 246.286 485.383 243.78 482.763C244.698 487.066 242.628 490.893 241.205 494.82C244.628 493.29 248.048 491.761 251.47 490.231ZM573.193 555.71C574.214 552.298 575.237 548.906 576.43 545.547C577.766 541.785 578.43 541.46 575.233 538.829C572.58 543.836 569.926 548.844 567.272 553.852C569.161 554.653 571.133 555.434 573.193 555.71ZM298.569 308.755C295.056 304.802 278.591 304.553 280.628 313.279C281.339 316.326 285.387 313.089 287.923 312.379C290.439 311.674 297.566 311.58 298.569 308.755ZM297.965 364.731C297.539 363.722 296.689 360.08 295.427 359.793C294.198 359.513 289.346 363.333 288.435 363.916C283.886 366.826 279.452 369.957 275.019 373.042C276.717 373.042 278.258 372.438 279.945 372.426C281.95 372.408 283.387 373.23 285.342 372.761C289.542 371.755 294.416 367.108 297.965 364.731ZM302.516 274.516C302.91 272.707 323.496 278.136 325.97 279.13C327.318 279.671 334.272 283.28 332.778 277.84C331.927 274.742 323.891 272.38 321.316 271.531C314.768 269.373 307.865 267.839 300.894 268.195C299.54 268.263 289.288 268.854 293.569 272.968C295.044 274.385 300.332 273.939 302.516 274.516ZM307.022 522.982C310.858 524.866 314.774 526.307 318.782 527.78C320.563 528.435 323.338 530.148 325.302 529.718C326.911 529.364 327.427 526.918 328.272 525.281C331.363 519.289 335.053 514.456 339.629 509.516C337.504 507.969 326.719 514.794 324.05 515.801C321.378 516.81 318.857 517.826 316.242 519.031C313.78 520.165 308.923 521.18 307.022 522.982ZM374.931 471.911C380.521 469.386 385.819 464.908 390.403 460.898C395.667 456.295 400.386 451.47 404.239 445.513C401.92 445.631 396.801 453.077 396.743 444.97C396.714 440.834 402.39 436.761 404.152 432.925C399.77 430.454 395.752 445.216 390.724 441.638C385.879 438.19 393.523 426.336 394.996 422.596C392.154 420.708 375.964 441.836 373.621 444.54C372.155 446.232 368.689 448.485 367.862 450.459C367.369 451.634 367.299 455.363 367.537 456.444C368.033 458.704 370.544 461.411 371.663 463.515C373.078 466.18 374.31 468.949 374.931 471.911ZM606.011 548.085C601.178 541.273 606.171 538.302 610.101 532.648C613.244 528.126 616.136 523.141 618.129 518.09C623.112 505.458 627.609 493.714 630.07 480.352C626.683 481.896 624.566 487.77 622.871 490.866C620.592 495.028 618.588 499.397 616.056 503.429C611.317 510.975 606.665 519.024 600.637 525.565C597.905 528.529 595.593 531.863 592.442 534.534C591.002 535.754 588.248 536.756 587.187 538.281C586.186 539.722 587.306 540.642 586.926 542.363C586.536 544.128 584.747 546.01 583.98 547.71C582.972 549.942 582.033 552.18 580.908 554.363C579.681 556.744 579.346 557.988 579.015 560.315C578.654 562.859 579.762 563.123 577.537 565.467C581.569 567.242 585.602 569.017 589.634 570.792C590.994 571.392 592.355 571.991 593.716 572.59C594.003 572.053 594.29 571.516 594.577 570.979C595.685 569.905 596.704 567.255 597.337 565.835C599.987 559.913 602.979 553.967 606.011 548.085ZM216.642 519.489C205.193 549.583 245.425 574.923 270.191 580.527C273.622 581.303 276.969 582.319 280.384 583.153C284.107 584.061 287.413 583.88 291.13 584.261C294.086 584.563 295.495 586.843 298.281 587.472C302.937 588.522 302.652 585.029 302.986 581.286C304.399 565.416 312.512 550.104 321.098 536.861C317.176 535.46 313.289 533.931 309.418 532.397C306.105 531.084 301.032 527.394 297.47 527.198C294.836 527.055 290.822 529.301 288.263 530.286C284.003 531.928 279.729 533.326 275.289 534.445C267.524 536.403 258.883 539.071 250.848 539.273C248.531 539.332 242.176 540.409 240.51 538.98C237.331 536.254 241.743 533.982 244.404 533.009C260.263 527.211 277.102 524.746 293.006 518.801C301.191 515.742 309.29 512.325 317.526 509.311C324.625 506.713 332.061 504.413 338.921 501.217C347.982 496.998 357.081 491.743 364.926 485.551C366.497 484.312 369.787 482.471 370.863 480.676C371.811 479.095 371.693 480.672 371.496 478.755C371.355 477.379 369.668 475.513 368.974 474.213C366.388 469.364 364.051 464.383 362.087 459.251C349.572 464.611 337.666 471.905 325.335 477.633C312.924 483.398 298.924 487.465 285.647 490.708C279.996 492.089 273.499 492.525 268.316 495.253C266.114 496.412 263.937 497.753 261.579 498.423C260.882 499.757 260.197 500.019 259.521 499.207C259.098 498.733 258.551 498.533 257.879 498.606C256.437 498.85 254.965 499.531 253.616 500.053C246.788 502.696 240.249 506.006 233.766 509.383C230.693 510.983 227.541 512.558 224.6 514.386C223.024 515.365 221.612 516.353 220.322 517.698C218.776 519.311 219.144 520.636 216.642 519.489ZM474.271 340.807C477.164 340.854 479.801 339.289 482.818 339.376C487.563 339.513 491.318 343.185 494.072 346.727C499.521 353.735 498.131 362.189 495.394 370.032C494.085 373.78 492.286 377.377 490.04 380.658C488.051 383.563 484.495 386.31 483.107 389.544C480.818 394.877 485.437 392.609 488.265 391.471C491.82 390.037 495.154 388.256 498.172 385.856C511.623 375.16 521.856 360.292 525.284 343.218C526.956 334.888 526.827 325.149 521.015 318.35C515.701 312.132 506.528 310.101 498.687 311.254C490.211 312.501 482.529 316.085 475.627 320.699C473.623 322.04 471.787 323.504 469.905 325.003C467.435 326.97 465.955 327.021 466.574 330.104C467.032 332.397 468.282 334.772 469.088 336.971C470.596 341.09 470.046 342.156 474.271 340.807ZM483.495 411.825L482.909 412.824C486.945 413.015 490.704 409.461 494.143 407.726C498.61 405.47 502.577 402.394 506.491 399.287C513.394 393.808 520.388 387.633 525.526 380.439C537.045 364.315 547.508 343.871 544.365 323.427C540.977 301.392 521.674 292.911 501.106 295.828C491.836 297.142 483.561 301.274 475.266 305.468C471.084 307.583 467.555 310.326 463.725 312.981C461.737 314.36 459.923 314.539 459.793 316.949C459.695 318.766 462.841 322.874 463.691 324.52C474.106 313.912 485.331 305.136 501.06 304.593C519.773 303.948 530.838 321.663 530.756 338.626C530.675 355.262 523.489 371.264 512.032 383.22C506.826 388.654 501.862 393.014 495.468 396.98C492.281 398.956 489.931 400.731 486.368 402.044C483.847 402.973 484.11 402.483 483.467 404.813C482.92 406.789 483.478 409.772 483.495 411.825ZM381.816 637.845C381.572 640.843 380.962 643.794 380.283 646.718C380.039 647.768 378.665 651.083 378.906 652.264C379.304 654.215 378.775 652.961 380.487 653.978C382.273 655.041 384.353 654.977 386.309 655.3C387.516 655.499 391.939 657.578 392.683 657.25C393.983 656.676 393.942 654.652 395.369 653.851C397.313 652.757 400.178 653.694 402.012 654.549C406.916 656.832 410.285 661.559 415.029 664.147C423.455 668.741 433.453 671.285 442.853 672.334C447.945 672.903 453.156 673.901 458.186 672.709C462.148 671.771 467.298 671.857 469.452 667.612C450.31 662.356 421.093 655.924 413.525 633.992C409.41 637.717 402.535 635.711 397.563 635.197C392.093 634.631 387.205 634.763 382.202 632.273C381.836 634.23 381.724 635.855 381.816 637.845ZM212.333 502.008C221.344 502.551 229.887 498.294 235.432 491.111C236.797 489.342 238.197 487.536 239.016 485.44C239.194 484.909 239.371 484.377 239.549 483.846C240.409 482.379 240.032 481.687 238.42 481.77C237.511 480.525 235.207 480.107 235.862 477.852C236.356 476.15 238.178 476.122 239.761 475.587C238.972 474.264 238.501 473.601 237.372 472.425C234.439 475.058 229.116 480.229 227.056 474.177C226.065 471.272 227.808 468.495 227.376 465.693C227.199 464.534 225.727 461.573 224.874 460.88C220.331 457.188 213.789 458.716 208.969 460.889C205.648 462.387 204.933 463.09 204.391 466.524C203.841 470.016 203.33 473.507 202.72 476.988C204.713 475.951 205.076 473.711 206.376 472.098C206.862 472.983 207.35 473.869 207.838 474.754C208.524 474.37 209.165 474.39 209.759 474.815C210.721 476.292 210.116 478.481 209.82 480.029C213.028 479.731 214.383 483.303 211.15 484.75C207.8 486.249 206.289 482.163 206.176 479.516C204.926 481.006 203.642 480.209 202.771 480.974C201.901 481.74 201.558 483.336 201.248 485.083C200.739 487.955 199.437 492.098 200.642 494.978C202.431 499.257 208.135 501.483 212.333 502.008ZM473.444 364.587C470.463 368.726 465.379 374.146 464.316 379.147C467.6 377.223 474.543 367.965 476.332 375.34C477.359 379.573 472.093 384.617 470.799 388.716C475.978 387.015 479.666 381.687 482.898 377.575C487.019 372.332 491.225 365.42 492.277 358.753C493.128 353.358 489.379 348.33 483.81 347.801C480.965 347.531 477.994 347.982 475.245 348.641C473.992 348.94 472.122 349.313 471.003 349.983C469.599 350.826 469.407 352.797 468.083 351.157C466.325 354.465 464.568 357.773 462.81 361.08C464.559 360.446 468.129 357.756 470.041 358.034C472.833 358.441 473.406 362.49 473.444 364.587ZM194.276 283.603C186.46 283.833 178.289 285.495 170.889 287.966C169.052 288.58 161.299 290.763 162.932 293.929C164.011 296.021 169.829 293.065 171.588 292.572C179.126 290.458 186.888 289.064 194.609 287.792C196.478 287.484 202.82 287.515 203.148 285.068C203.549 282.083 196.484 283.6 194.276 283.603ZM407.013 624.114C402.776 624.631 398.708 624.438 394.467 623.92C390.898 623.484 387.263 622.025 383.712 622.025C383.712 625.82 383.454 625.844 387.465 626.656C390.264 627.223 393.103 627.542 395.932 627.937C400.913 628.632 406.443 630.584 411.485 629.581C411.363 628.922 410.976 624.475 410.454 624.035C410.16 623.788 407.44 624.119 407.013 624.114ZM338.537 343.307C339.721 344.06 342.445 347.065 343.856 347.119C343.352 343.639 339.464 337.582 334.999 339.732C333.905 340.259 331.607 342.884 332.647 344.042C333.202 344.661 337.085 343.311 338.537 343.307ZM297.229 374.258C297.272 373.651 297.316 373.045 297.361 372.439C295.723 373.4 293.695 373.856 292.53 375.405C293.928 376.023 295.325 376.643 296.723 377.262C296.892 376.26 297.061 375.259 297.229 374.258ZM426.253 466.627C433.993 469.334 441.09 472.948 446.787 479.084C451.712 484.39 454.027 493.738 455.229 500.692C458.203 517.902 452.463 533.853 448.679 550.316C446.758 558.667 443.892 566.704 441.208 574.84C438.864 581.944 436.855 589.384 433.62 596.139C430.878 601.867 427.374 607.514 424.961 613.456C423.663 616.653 421.558 627.627 416.63 624.181C415.285 627.691 414.958 627.392 416.396 629.831C417.436 631.596 420.966 634.047 422.632 635.484C427.07 639.316 432.692 642.474 437.898 645.157C447.435 650.071 457.658 653.748 467.479 658.227C471.821 660.21 476.53 662.551 475.555 668.222C474.739 672.976 471.984 676.581 467.687 678.696C463.652 680.682 457.881 682.216 453.443 682.839C450.809 683.209 450.206 682.115 448.058 681.736C445.669 681.316 442.881 682.129 440.415 682.108C429.349 682.012 419.661 679.232 410.718 672.825C407.523 670.535 402.819 664.325 398.637 664.325C396.499 664.325 396.95 665.622 395.07 666.383C392.75 667.321 388.751 665.55 386.47 665.134C381.61 664.248 376.667 663.349 373.431 659.169C369.932 654.652 371.175 649.057 372.679 644.041C374.374 638.387 377.226 632.651 378.438 626.911C378.733 625.515 379.005 622.912 378.705 621.492C378.239 619.288 376.01 617.973 375.943 615.586C375.923 614.86 376.963 613.903 377.145 613.154C377.547 611.508 377.485 609.8 377.65 608.126C377.946 605.138 378.628 602.276 379.099 599.323C380.169 592.604 382.279 586.61 384.322 580.137C386.304 573.853 388.19 569.178 392.022 563.737C394.006 560.92 400.642 550.882 397.401 547.993C392.966 556.691 387.779 563.475 380.991 570.399C375.8 575.696 370.724 582.816 364.227 586.588C357.083 590.735 348.353 593.175 340.464 595.368C336.711 596.411 333.598 598.723 329.553 599.151C325.169 599.614 320.707 599.068 316.414 598.092C315.205 597.818 311.72 595.964 310.626 596.082C309.015 596.257 306.697 599.124 304.929 599.65C300.626 600.932 297.687 598.483 294.423 596.221C290.88 593.765 289.808 593.155 285.721 592.859C280.714 592.498 275.844 590.736 270.919 589.656C262.261 587.76 254.901 583.916 247.03 579.892C238.008 575.28 230.292 568.921 223.491 561.408C213.495 550.363 199.573 519.757 215.903 509.041C206.289 507.738 197.485 503.546 196.313 492.683C195.701 486.999 196.853 480.702 198.285 475.222C198.938 472.721 199.717 470.234 200.464 467.758C201.026 466.922 201.324 466.008 201.354 465.013C201.699 463.725 201.202 463.083 199.862 463.089C197.33 460.133 195.427 457.524 194.915 453.326C194.754 451.996 194.61 449.958 195.558 448.827C195.996 448.372 196.526 448.068 197.143 447.916C198.627 448.001 199.046 447.271 198.402 445.727C199.122 443.539 198.053 441.835 200.769 440.922C201.639 441.107 202.505 441.309 203.368 441.528C204.469 442.03 205.186 441.666 205.519 440.442C208.077 439.442 206.897 437.965 210.372 439.251C212.476 440.029 214.477 441.369 216.009 443.002C217.93 441.77 213.56 434.159 213.415 431.731C213.069 426.006 215.439 421.274 218.523 416.572C224.517 407.435 232.884 399.579 241.134 392.509C256.938 378.971 273.54 366.083 291.384 355.298C284.023 350.193 275.423 348.81 266.664 351.182C258.589 353.369 252.043 357.341 244.61 360.816C237.724 364.033 230.415 365.355 228.219 356.574C225.759 346.739 233.608 343.087 240.648 338.677C238.89 337.368 233.103 338.303 230.914 338.458C226.039 338.803 221.376 339.902 216.638 340.873C214.366 341.339 212.279 341.234 210.028 341.69C206.681 342.369 203.187 343.128 199.801 344.095C191.746 346.394 183.751 349.885 176.791 354.589C170.775 358.652 166.601 364.389 161.754 369.673C156.227 375.699 150.93 381.627 142.735 383.832C138.898 384.866 134.396 385.803 131.676 382.381C129.145 379.199 129.004 375.365 129.087 371.474C129.27 362.88 133.428 353.594 138.265 346.572C143.515 338.95 150.547 334.584 157.191 328.449C147.588 329.134 138.307 334.188 129.475 337.682C127.617 338.417 125.741 339.244 123.872 339.924C121.879 340.65 120.559 340.205 118.65 340.538C114.293 341.297 110.551 343.13 106.313 340.207C98.2947 334.678 106.328 323.431 111.848 319.979C119.537 315.173 127.36 311.126 135.831 307.697C131.245 302.731 135.162 295.643 139.389 292.12C144.737 287.662 151.548 285.107 157.992 282.721C163.089 280.833 168.094 279.021 173.389 277.885C178.955 276.691 185.463 274.867 191.11 275.042C196.407 275.206 201.104 274.275 206.468 274.126C210.932 274.002 215.405 274.109 219.868 273.993C231.876 273.684 243.928 274.492 255.663 275.354C246.365 248.208 307.61 256.592 320.676 260.137C332.55 263.36 346.156 267.098 356.13 274.745C360.355 277.984 364.368 281.666 368.118 285.444C373.649 291.019 376.711 298.32 379.636 305.526C387.057 301.897 394.152 297.942 402.272 296.142C409.998 294.43 417.912 292.11 425.684 290.817C431.592 289.833 440.168 289.166 445.141 293.331C450.541 297.856 453.355 304.896 456.579 310.926C472.061 296.259 489.33 285.558 511.404 286.27C533.004 286.966 547.208 305.59 549.827 325.77C552.711 348.007 542.79 371.243 529.341 388.463C523.311 396.186 517.071 403.644 508.954 409.406C504.929 412.262 500.683 415.391 496.27 417.621C494.069 418.732 491.663 419.737 489.352 420.592C488.31 420.978 487.236 421.366 486.151 421.628C483.055 422.378 483.656 421.376 482.505 424.083C481.571 426.28 481.686 430.061 481.285 432.472C480.828 435.228 480.556 438.023 479.889 440.742C478.732 445.454 477.528 450.051 476.08 454.653C473.337 463.363 469.646 472.141 465.126 480.086C468.96 481.748 474.328 481.916 478.425 482.42C482.859 482.964 487.3 484.11 491.906 485.396C501.135 487.972 509.382 490.147 518.158 494.004C527.269 498.008 535.389 503.988 544.162 508.747C552.229 513.123 560.384 518.604 567.876 523.857C569.659 525.107 570.763 526.193 572.182 527.777C573.633 529.393 574.095 529.71 575.83 531.111C576.613 531.742 578.887 534.928 579.78 535.045C581.38 535.257 581.134 534.065 582.389 532.401C585.011 528.927 588.668 526.236 591.271 522.674C593.443 519.704 595.708 516.697 598.028 514.143C603.645 507.962 608.299 501.111 612.292 493.702C614.37 489.844 616.558 486.173 618.815 482.533C621.062 478.908 625.057 474.125 629.531 474.339C629.172 472.493 628.029 472.186 630.001 471.057C631.272 470.33 633.745 471.502 634.724 472.24C637.32 474.196 637.431 477.989 637.268 480.839C636.846 488.182 635.308 495.431 633.162 502.375C630.584 510.722 627.352 518.086 623.825 526.053C621.018 532.399 617.531 540.792 610.544 543.688C615.236 550.377 612.983 555.828 609.847 562.93C607.555 568.121 604.527 573.486 599.916 576.921C594.718 580.794 589.08 577.509 583.644 574.949C580.36 573.403 570.319 569.753 572.361 564.995C569.853 564.661 568.275 562.842 565.992 562.282C563.575 561.689 563.99 562.669 561.433 563.037C559.472 563.318 556.539 561.565 554.693 560.938C551.609 559.891 548.534 558.816 545.455 557.758C536.787 554.776 528.265 551.842 519.511 549.454C503.224 545.011 486.736 542.49 470.506 538.523C467.253 537.727 464.018 536.96 460.631 536.323C459.931 536.191 456.302 535.989 455.861 535.242C455.089 533.932 457.463 526.601 457.666 525.107C459.005 515.3 458.567 504.563 456.683 494.868C455.9 490.837 452.405 485.618 452.435 481.684C452.456 479.045 454.798 476.163 456.174 473.772C459.576 467.861 463.14 461.474 465.661 455.322C469.518 445.912 471.882 435.289 473.586 425.211C474.473 419.956 475.507 414.26 475.748 408.945C475.933 404.893 475.6 400.643 476.189 396.494C473.943 396.707 470.765 397.868 468.742 396.625C466.187 395.055 465.501 390.574 465.827 387.898C457.08 389.422 457.371 381.141 457.912 374.664C442.103 374.664 462.349 351.21 464.879 346.174C466.041 343.858 466.007 346.459 465.493 342.878C465.268 341.304 464.19 339.559 463.58 338.112C462.252 334.952 460.815 331.841 459.281 328.775C456.04 322.3 452.368 316.044 448.36 310.012C444.753 312.522 441.501 315.493 438.489 318.68C440.421 313.634 446.326 307.383 443.8 301.653C441.46 296.342 433.642 296.711 429.025 297.682C416.479 300.322 404.448 304.169 392.496 308.622C396.198 310.742 401.866 309.104 405.545 307.484C410.099 305.476 414.998 303.37 419.907 302.307C424.188 301.38 429.811 301.696 428.573 307.454C427.57 312.119 423.001 316.611 419.985 320.099C413.341 327.784 405.01 333.733 396.827 339.677C388.031 346.067 379.555 353.01 370.647 359.214C354.545 370.431 337.231 380.18 320.595 390.65C311.95 396.09 302.154 400.468 292.778 404.5C282.465 408.935 272.576 413.684 261.877 417.187C255.934 419.133 250.045 420.734 244.206 422.949C240.546 424.336 234.172 427.116 231.754 422.996C226.843 414.63 244.616 403.627 249.486 398.512C252.846 401.769 236.277 413.909 237.574 418.653C238.593 422.38 242.534 417.567 244.437 416.551C247.513 414.909 251.155 414.084 254.246 412.21C260.586 408.367 268.102 403.935 269.549 395.992C268.542 394.93 268.555 393.951 269.587 393.053C270.047 392.507 270.412 391.908 270.68 391.254C271.131 390.006 271.313 388.442 271.554 387.119C272.268 383.207 270.476 379.544 272.151 375.715C262.38 383.106 252.989 391.455 243.714 399.456C235.395 406.633 226.714 416.031 223.657 426.741C223.266 428.113 222.615 429.669 222.686 431.117C222.825 433.961 223.11 433.347 225.404 434.261C227.698 435.176 231.039 435.097 233.506 435.194C234.913 435.248 241.194 433.762 239.945 436.843C239.225 438.619 234.871 438.553 233.312 438.717C229.399 439.129 227.277 438.706 229.131 442.94C229.962 444.838 231.645 446.124 232.966 447.593C236.641 451.679 238.638 457.947 241.529 462.749C244.823 468.218 248.444 473.42 252.291 478.514C253.878 480.616 256 484.566 258.201 486.066C260.256 487.467 257.838 487.351 261.252 486.782C262.739 486.535 264.088 485.568 265.511 485.222C274.021 483.153 282.768 480.819 291.568 478.264C302.825 474.996 314.637 472.21 325.377 467.504C334.998 463.287 344.547 458.267 354.269 453.996C357.108 452.75 359.944 451.924 362.15 449.63C364.813 446.861 367.019 443.237 369.475 440.261C373.653 435.199 377.504 430.05 382 425.253C385.348 421.684 391.28 415.049 396.002 413.624C404.976 410.917 400.172 424.563 399.012 428.012C401.122 428.49 402.231 425.789 404.707 426.566C407.671 427.497 407.977 431.432 408.348 433.898C408.447 434.556 407.556 435.784 407.827 436.37C407.919 436.569 409.853 437.711 410.226 438.24C411.581 440.163 411.314 442.501 410.801 444.574C408.145 455.314 398.706 463.156 391.765 471.078C394.87 470.492 397.173 468.725 400.104 467.849C402.856 467.027 405.622 467.07 408.395 466.834C411.299 466.588 414.088 465.502 417.059 465.448C420.177 465.39 423.161 466.276 426.253 466.627Z" fill="black"/>
<path fill-rule="evenodd" clip-rule="evenodd" d="M97.9395 370.027C96.2277 371.144 95.7451 372.24 95.686 374.818C95.6624 375.875 95.7354 379.818 97.215 379.669C98.6035 379.53 97.9395 371.383 97.9395 370.027ZM89.0966 376.45C89.8942 368.19 92.921 359.791 100.041 354.645C101.802 353.372 103.794 353.417 105.724 352.614C106.884 352.132 108.716 349.889 110.033 350.155C114.88 351.134 109.28 357.564 108.46 359.255C105.919 364.496 106.09 369.101 106.166 374.754C106.224 379.051 107.118 386.294 104.949 390.184C102.636 394.325 97.6198 391.635 94.8198 389.185C91.2861 386.09 88.6171 381.163 89.0966 376.45Z" fill="black"/>
<path fill-rule="evenodd" clip-rule="evenodd" d="M174.187 400.859C174.187 405.468 177.934 402.348 177.8 399.069C177.604 394.243 174.012 397.215 174.187 400.859ZM194.107 375.378C190.006 379.061 186.842 381.127 186.052 386.789C185.454 391.078 186.048 395.325 186.074 399.646C186.117 406.887 180.26 414.5 173.957 406.199C169.359 400.145 171.008 390.624 174.757 384.539C176.725 381.347 179.533 378.188 182.777 376.199C185.218 374.701 192.082 371.755 194.107 375.378Z" fill="black"/>
<path fill-rule="evenodd" clip-rule="evenodd" d="M136.835 486.983C136.359 488.106 135.243 492.692 137.521 491.655C139.531 490.738 138.228 487.699 136.835 486.983ZM124.802 472.826C124.451 471.102 124.594 460.293 127.576 461.103C129.918 461.739 130.306 467.272 131.26 469.197C134.813 476.369 142.969 480.834 145.782 488.235C148.921 496.501 139.429 496.757 134.393 493.41C128.429 489.447 124.979 479.743 124.802 472.826Z" fill="black"/>
<path fill-rule="evenodd" clip-rule="evenodd" d="M117.492 428.505C118.786 426.761 118.917 425.829 118.179 424.285C117.236 425.309 117.403 426.773 117.492 428.505ZM118.428 436.309C111.681 437.064 111.343 424.65 112.499 420.388C113.419 416.993 115.397 413.346 117.434 410.58C117.845 410.021 121.746 405.006 122.51 404.994C125.445 404.948 124.639 408.258 124.322 409.49C123.325 413.373 122.93 416.617 123.198 420.922C123.486 425.528 125.671 436.462 118.428 436.309Z" fill="black"/>
<path fill-rule="evenodd" clip-rule="evenodd" d="M424.769 328.802C415.122 336.88 405.963 345.625 395.473 352.691C390.34 356.149 384.973 359.208 379.851 362.722C377.243 364.512 374.581 366.114 371.687 367.43C369.13 368.592 367.459 368.743 369.58 365.985C370.998 364.142 374.176 362.858 376.107 361.547C379.08 359.53 381.887 357.292 385.013 355.502C390.525 352.345 396.004 349.796 401.084 345.924C405.594 342.489 410.247 339.134 414.551 335.483C416.397 333.917 422.516 326.728 424.769 328.802Z" fill="black"/>
<path fill-rule="evenodd" clip-rule="evenodd" d="M424.964 357.97C429.303 361.675 418.448 371.826 415.972 374.127C413.362 376.554 410.487 378.718 407.648 380.867C406.649 381.624 401.196 386.69 399.812 386.281C397.081 385.474 400.666 382.187 401.599 381.331C404.614 378.555 407.693 375.861 410.641 373.011C413.3 370.443 416.179 368.065 418.75 365.413C420.832 363.265 422.582 359.626 424.964 357.97Z" fill="black"/>
<path fill-rule="evenodd" clip-rule="evenodd" d="M103.533 507.333C102.4 504.713 100.371 507.622 101.4 508.931C102.372 510.17 103.388 507.837 103.533 507.333ZM96.8905 502.158C97.4978 498.305 98.9012 496.163 102.522 499.453C105.01 501.713 110.014 508.14 109.539 511.644C108.916 516.239 103.846 514.935 101.218 512.532C98.5242 510.069 97.335 505.575 96.8905 502.158Z" fill="black"/>
<path fill-rule="evenodd" clip-rule="evenodd" d="M104.825 578C100.39 577.663 96.6054 574.263 94.7217 570.279C93.1368 566.928 91.6368 561.527 97.2047 563.288C100.834 564.437 114.823 578.541 104.825 578Z" fill="black"/>
<path fill-rule="evenodd" clip-rule="evenodd" d="M158.58 556.156C155.152 556.935 151.762 554.681 149.654 552.14C148.342 550.556 145.29 545.007 146.828 542.723C148.972 539.537 152.208 545.941 153.325 547.209C155.076 549.194 160.802 552.991 158.58 556.156Z" fill="black"/>
<path fill-rule="evenodd" clip-rule="evenodd" d="M161.668 469.5C158.981 468.255 156.486 466.756 155.405 463.783C154.718 461.889 154.141 456.211 157.193 456.237C160.723 456.268 168.806 468.931 161.668 469.5Z" fill="black"/>
<path fill-rule="evenodd" clip-rule="evenodd" d="M142.83 410.421C146.427 410.356 147.279 412.337 147.779 415.183C148.119 417.115 149.767 423.672 148.056 425.015C145.61 426.935 141.72 422.537 140.933 420.81C139.313 417.256 141.554 413.76 142.83 410.421Z" fill="black"/>
<path fill-rule="evenodd" clip-rule="evenodd" d="M204.649 607.036C206.4 607.832 210.386 609.597 208.863 612.335C207.271 615.198 202.699 612.416 200.991 611.164C200.276 610.64 195.734 607.211 195.925 606.062C196.325 603.618 202.586 606.807 204.649 607.036Z" fill="black"/>
<path fill-rule="evenodd" clip-rule="evenodd" d="M89.2382 428.209C90.4353 431.201 91.7827 441.483 85.4792 435.931C83.5556 434.236 83.2653 432.12 83.928 429.794C84.8864 426.422 86.281 427.091 89.2382 428.209Z" fill="black"/>
<path fill-rule="evenodd" clip-rule="evenodd" d="M423.283 389.922C421.887 387.075 425.333 385.238 427.174 383.403C428.377 382.205 433.432 375.704 435.09 376.071C438.5 376.827 424.959 388.652 423.283 389.922Z" fill="black"/>
<path fill-rule="evenodd" clip-rule="evenodd" d="M142.784 596.153C146.073 595.626 146.841 599.274 148.96 600.864C149.868 601.546 152.988 602.145 152.36 603.593C150.712 607.395 142.623 598.71 142.784 596.153Z" fill="black"/>
<path fill-rule="evenodd" clip-rule="evenodd" d="M170.558 510.008C172.819 509.063 179.344 514.138 177.47 516.331C174.669 519.611 170.717 511.802 170.558 510.008Z" fill="black"/>
<path fill-rule="evenodd" clip-rule="evenodd" d="M218.21 583.433C216.562 583.596 209.608 581.414 212.184 578.492C213.994 576.439 218.801 581.575 218.21 583.433Z" fill="black"/>
<path fill-rule="evenodd" clip-rule="evenodd" d="M134.932 569.412C133.296 570.065 127.396 568.721 129.251 566.163C131.018 563.727 134.934 567.39 134.932 569.412Z" fill="black"/>
<path fill-rule="evenodd" clip-rule="evenodd" d="M183.238 580.449C185.151 580.251 186.533 581.402 186.861 583.352C184.469 583.693 183.731 583.125 183.238 580.449Z" fill="black"/>
<path fill-rule="evenodd" clip-rule="evenodd" d="M432.015 297.376C432.823 297.38 433.63 297.384 434.431 297.388C433.621 297.384 432.819 297.38 432.015 297.376Z" fill="black"/>
<path fill-rule="evenodd" clip-rule="evenodd" d="M419.335 465.278C418.127 465.279 416.919 465.281 415.712 465.282C416.92 465.28 418.128 465.279 419.335 465.278Z" fill="black"/>
<path fill-rule="evenodd" clip-rule="evenodd" d="M254.574 268.746C254.518 269.953 254.463 271.16 254.406 272.363C254.46 271.155 254.517 269.95 254.574 268.746Z" fill="black"/>
<path fill-rule="evenodd" clip-rule="evenodd" d="M628.746 473.72C629.131 475.062 628.567 475.284 627.052 474.387C627.616 474.165 628.181 473.943 628.746 473.72Z" fill="black"/>
<path fill-rule="evenodd" clip-rule="evenodd" d="M594.445 578.915C595.051 578.918 595.657 578.922 596.256 578.926C595.648 578.922 595.047 578.918 594.445 578.915Z" fill="black"/>
<path fill-rule="evenodd" clip-rule="evenodd" d="M479.718 481.874C478.705 482.644 477.698 482.753 476.698 481.833C477.705 481.847 478.711 481.86 479.718 481.874Z" fill="black"/>
<path fill-rule="evenodd" clip-rule="evenodd" d="M457.113 379.07C457.087 380.076 457.061 381.082 457.035 382.085C457.06 381.077 457.087 380.073 457.113 379.07Z" fill="black"/>
<path fill-rule="evenodd" clip-rule="evenodd" d="M509.305 286.048C508.299 286.048 507.291 286.046 506.286 286.045C507.293 285.669 508.3 285.793 509.305 286.048Z" fill="black"/>
<path fill-rule="evenodd" clip-rule="evenodd" d="M214.033 273.782C213.028 273.841 212.02 273.9 211.014 273.959C212.02 273.9 213.028 273.841 214.033 273.782Z" fill="black"/>
<path fill-rule="evenodd" clip-rule="evenodd" d="M238.79 273.973C237.986 273.905 237.179 273.836 236.375 273.768C237.179 273.836 237.984 273.905 238.79 273.973Z" fill="black"/>
<path fill-rule="evenodd" clip-rule="evenodd" d="M252.075 274.928C251.27 275.228 250.465 275.405 249.659 274.933C250.465 274.931 251.27 274.93 252.075 274.928Z" fill="black"/>
<path fill-rule="evenodd" clip-rule="evenodd" d="M180.219 276.579C179.212 276.783 178.206 276.988 177.2 277.19C178.207 276.988 179.213 276.783 180.219 276.579Z" fill="black"/>
<path fill-rule="evenodd" clip-rule="evenodd" d="M457.719 521.949C457.691 522.553 457.663 523.157 457.637 523.758C457.665 523.153 457.692 522.551 457.719 521.949Z" fill="black"/>
<path fill-rule="evenodd" clip-rule="evenodd" d="M124.952 473.117C124.964 473.52 124.976 473.923 124.986 474.323C124.973 473.919 124.963 473.518 124.952 473.117Z" fill="black"/>
<path fill-rule="evenodd" clip-rule="evenodd" d="M632.486 470.954L629.467 470.97C630.471 470.221 631.478 470.316 632.486 470.954Z" fill="black"/>
<path fill-rule="evenodd" clip-rule="evenodd" d="M425.977 466.685C425.171 466.552 424.366 466.419 423.562 466.287C424.366 466.419 425.172 466.552 425.977 466.685Z" fill="black"/>
<path fill-rule="evenodd" clip-rule="evenodd" d="M204.976 606.945C203.969 606.75 202.963 606.553 201.957 606.358L204.976 606.945Z" fill="black"/>
<path fill-rule="evenodd" clip-rule="evenodd" d="M408.192 433.931C408.173 433.328 408.154 432.724 408.136 432.123C408.154 432.726 408.173 433.329 408.192 433.931Z" fill="black"/>
<path fill-rule="evenodd" clip-rule="evenodd" d="M217.053 273.982C216.449 273.908 215.844 273.833 215.241 273.759C215.844 273.833 216.449 273.908 217.053 273.982Z" fill="black"/>
<path fill-rule="evenodd" clip-rule="evenodd" d="M316.08 259.073C315.477 258.89 314.872 258.708 314.269 258.525C314.873 258.708 315.477 258.89 316.08 259.073Z" fill="black"/>
<path fill-rule="evenodd" clip-rule="evenodd" d="M387.936 665.696C388.34 665.721 388.744 665.745 389.143 665.769C388.738 665.745 388.336 665.72 387.936 665.696Z" fill="black"/>
<path fill-rule="evenodd" clip-rule="evenodd" d="M110.779 341.97C111.385 341.986 111.991 342.002 112.59 342.018C111.981 342.002 111.38 341.986 110.779 341.97Z" fill="black"/>
<path fill-rule="evenodd" clip-rule="evenodd" d="M515.947 286.637C514.941 286.566 513.935 286.496 512.928 286.425C513.935 286.496 514.941 286.566 515.947 286.637Z" fill="black"/>
<path fill-rule="evenodd" clip-rule="evenodd" d="M197.73 283.814C196.318 283.817 194.907 283.819 193.503 283.821C194.919 283.819 196.324 283.817 197.73 283.814Z" fill="black"/>
<path fill-rule="evenodd" clip-rule="evenodd" d="M483.01 408.008C483.028 409.014 483.048 410.02 483.068 411.022C483.05 410.015 483.031 409.011 483.01 408.008Z" fill="black"/>
<path fill-rule="evenodd" clip-rule="evenodd" d="M409.07 623.853C408.262 623.84 407.456 623.827 406.654 623.814C407.464 623.825 408.267 623.839 409.07 623.853Z" fill="black"/>
<path fill-rule="evenodd" clip-rule="evenodd" d="M494.813 304.432C496.021 304.298 497.228 304.164 498.436 304.031C497.277 305.054 496.025 304.373 494.813 304.432Z" fill="black"/>
<path fill-rule="evenodd" clip-rule="evenodd" d="M402.428 624.168C401.822 624.145 401.217 624.123 400.616 624.101C401.224 624.124 401.826 624.146 402.428 624.168Z" fill="black"/>
<path fill-rule="evenodd" clip-rule="evenodd" d="M381.55 634.685C381.58 635.692 381.611 636.697 381.641 637.699C381.612 636.691 381.581 635.688 381.55 634.685Z" fill="black"/>
<path fill-rule="evenodd" clip-rule="evenodd" d="M473.679 341.45C474.485 341.376 475.29 341.301 476.095 341.227C475.36 341.792 474.497 341.461 473.679 341.45Z" fill="black"/>
<path fill-rule="evenodd" clip-rule="evenodd" d="M209.807 501.833C210.612 501.982 211.418 502.129 212.222 502.276C211.417 502.129 210.612 501.982 209.807 501.833Z" fill="black"/>
<path fill-rule="evenodd" clip-rule="evenodd" d="M335.403 343.202C336.408 342.347 337.414 342.44 338.422 343.193C337.415 343.195 336.409 343.199 335.403 343.202Z" fill="black"/>
<path fill-rule="evenodd" clip-rule="evenodd" d="M297.62 373.645C297.649 373.243 297.677 372.84 297.708 372.439C297.68 372.842 297.65 373.243 297.62 373.645Z" fill="black"/>
<path fill-rule="evenodd" clip-rule="evenodd" d="M473.365 362.19C473.373 362.996 473.381 363.8 473.39 364.602C473.382 363.794 473.374 362.993 473.365 362.19Z" fill="black"/>
<path fill-rule="evenodd" clip-rule="evenodd" d="M206.959 488.208C208.284 488.656 210.948 490.011 212.492 489.831C213.729 489.687 214.747 488.187 215.939 488.189C219.148 488.193 218.553 491.897 217.002 493.885C212.809 499.264 203.438 493.432 206.959 488.208Z" fill="black"/>
<path fill-rule="evenodd" clip-rule="evenodd" d="M220.058 468.897C224.434 470.025 222.255 479.637 218.575 480.297C214.244 481.076 213.489 473.261 214.344 470.436C216.574 471.758 215.193 476.476 218.003 475.172C219.79 474.342 219.518 470.504 220.058 468.897Z" fill="black"/>
<circle cx="65.5" cy="58.5" r="105.5" fill="#AAB6FB"/>
<circle cx="60.5" cy="163.5" r="57.5" fill="#FB7B8E"/>
<circle cx="661.5" cy="880.5" r="80.5" fill="#FB7B8E"/>
</g>
<defs>
<clipPath id="clip0_143_70">
<rect width="720" height="940" fill="white"/>
</clipPath>
</defs>
</svg>
